<?xml version="1.0"?>
<svg xmlns="http://www.w3.org/2000/svg" height="512px" viewBox="-6 1 511 511.9995" width="512px" class=""><g><path d="m486.988281 72.023438c16.488281-16.488282 16.488281-43.316407 0-59.800782-16.300781-16.304687-43.511719-16.289062-59.800781 0l-56.730469 56.730469c-2.929687 2.929687-2.929687 7.679687 0 10.609375 2.929688 2.929688 7.679688 2.929688 10.613281 0l56.730469-56.730469c10.515625-10.519531 28.074219-10.503906 38.574219 0 10.636719 10.636719 10.636719 27.941407 0 38.578125l-293.007812 293.011719-38.578126-38.578125 211.597657-211.601562c2.929687-2.929688 2.929687-7.679688 0-10.609376-2.929688-2.929687-7.679688-2.933593-10.609375 0 0 0-339.570313 339.570313-339.808594 339.808594-7.300781 7.296875-7.28125 19.574219-.003906 26.851563 0 0 32.933594 32.933593 32.949218 32.949219 7.207032 7.207031 19.546876 7.308593 26.855469 0l81.402344-81.402344 10.601563 10.597656c4.078124 3.648438 9.148437 1.464844 10.613281 0 2.929687-2.929688 2.929687-7.679688-.003907-10.609375l-10.601562-10.601563 25.445312-25.445312 60.601563 60.605469-25.441406 25.441406-25.320313-25.320313c-2.933594-2.929687-7.683594-2.929687-10.613281 0-2.929687 2.929688-2.929687 7.679688 0 10.609376l26.125 26.128906c-.914063 2.085937-1.394531 4.359375-1.394531 6.707031 0 4.464844 1.738281 8.660156 4.894531 11.816406 0 0 15.386719 15.382813 15.398437 15.394531 6.449219 6.449219 17.191407 6.445313 23.632813 0l38.058594-38.054687c6.515625-6.515625 6.515625-17.121094 0-23.636719l-15.398438-15.394531c-4.996093-5-12.398437-6.164063-18.515625-3.492187l-61.414062-61.414063zm-223.828125 368.664062 15.394532 15.398438c.667968.664062.667968 1.746093 0 2.410156l-38.054688 38.058594c-.414062.414062-1.53125.832031-2.414062 0l-15.394532-15.394532c-.664062-.667968-.664062-1.75 0-2.414062l38.058594-38.058594c.332031-.332031 1.519531-.929688 2.410156 0zm-208.003906 41.941406c-1.550781 1.550782-4.078125 1.550782-5.628906 0 0 0-32.910156-32.910156-32.949219-32.949218-1.539063-1.539063-1.53125-4.09375 0-5.628907l117.601563-117.597656 38.578124 38.578125zm0 0" data-original="#000000" class="active-path" data-old_color="#fe6637" fill="#fe6637"/></g> </svg>
