<?xml version="1.0"?>
<svg xmlns="http://www.w3.org/2000/svg" height="512px" viewBox="0 -60 512 512" width="512px"><g><path d="m463.242188 29.078125h-414.484376c-4.144531 0-7.5 3.355469-7.5 7.5 0 4.140625 3.355469 7.5 7.5 7.5h414.484376c4.144531 0 7.5-3.359375 7.5-7.5 0-4.144531-3.355469-7.5-7.5-7.5zm0 0" data-original="#000000" class="active-path" data-old_color="#000000" fill="#FE6637"/><path d="m463.242188 58.1875h-414.484376c-4.144531 0-7.5 3.355469-7.5 7.5 0 4.140625 3.355469 7.5 7.5 7.5h414.484376c4.144531 0 7.5-3.359375 7.5-7.5 0-4.144531-3.355469-7.5-7.5-7.5zm0 0" data-original="#000000" class="active-path" data-old_color="#000000" fill="#FE6637"/><path d="m107.34375 296.035156c3.679688 1.488282 8.210938-.296875 9.765625-4.140625 11.058594-27.339843 29.800781-50.65625 54.203125-67.417969 24.976562-17.160156 54.261719-26.230468 84.6875-26.230468 60.878906 0 115.230469 36.359375 138.476562 92.628906 1.582032 3.828125 5.964844 5.648438 9.792969 4.070312 3.828125-1.582031 5.652344-5.96875 4.070313-9.796874-12.304688-29.789063-32.933594-55.160157-59.652344-73.375-27.378906-18.660157-59.425781-28.527344-92.6875-28.527344-33.472656 0-65.691406 9.984375-93.179688 28.867187-26.835937 18.433594-47.453124 44.078125-59.617187 74.15625-1.550781 3.839844.300781 8.210938 4.140625 9.765625zm0 0" data-original="#000000" class="active-path" data-old_color="#000000" fill="#FE6637"/><path d="m490.417969 0h-468.835938c-11.902343 0-21.582031 9.679688-21.582031 21.582031v60.722657c0 11.898437 9.679688 21.582031 21.582031 21.582031h1.1875v55.660156c0 62.296875 24.257813 120.867187 68.3125 164.917969 44.050781 44.050781 102.621094 68.3125 164.917969 68.3125s120.867188-24.257813 164.917969-68.3125c44.050781-44.050782 68.3125-102.621094 68.3125-164.917969v-55.660156h1.1875c11.902343 0 21.582031-9.683594 21.582031-21.582031v-60.722657c0-11.902343-9.679688-21.582031-21.582031-21.582031zm-16.1875 159.546875c0 58.292969-22.699219 113.09375-63.917969 154.3125s-96.023438 63.917969-154.3125 63.917969-113.09375-22.699219-154.3125-63.917969-63.917969-96.019531-63.917969-154.3125v-55.660156h436.460938zm22.769531-77.242187c0 3.628906-2.953125 6.582031-6.582031 6.582031h-468.835938c-3.628906 0-6.582031-2.953125-6.582031-6.582031v-60.722657c0-3.628906 2.953125-6.582031 6.582031-6.582031h468.835938c3.628906 0 6.582031 2.953125 6.582031 6.582031zm0 0" data-original="#000000" class="active-path" data-old_color="#000000" fill="#FE6637"/><path d="m256 231.976562c-34.117188 0-61.871094 27.757813-61.871094 61.875 0 34.117188 27.753906 61.871094 61.871094 61.871094s61.871094-27.753906 61.871094-61.871094c0-34.117187-27.753906-61.875-61.871094-61.875zm0 108.746094c-25.847656 0-46.871094-21.027344-46.871094-46.871094 0-25.847656 21.023438-46.875 46.871094-46.875s46.871094 21.027344 46.871094 46.875c0 25.84375-21.023438 46.871094-46.871094 46.871094zm0 0" data-original="#000000" class="active-path" data-old_color="#000000" fill="#FE6637"/><path d="m256 265.605469c-15.574219 0-28.246094 12.667969-28.246094 28.246093 0 15.574219 12.671875 28.246094 28.246094 28.246094s28.246094-12.671875 28.246094-28.246094c0-15.578124-12.671875-28.246093-28.246094-28.246093zm0 41.492187c-7.304688 0-13.246094-5.941406-13.246094-13.246094 0-7.304687 5.941406-13.246093 13.246094-13.246093s13.246094 5.941406 13.246094 13.246093c0 7.304688-5.941406 13.246094-13.246094 13.246094zm0 0" data-original="#000000" class="active-path" data-old_color="#000000" fill="#FE6637"/></g> </svg>
