<?xml version="1.0"?>
<svg xmlns="http://www.w3.org/2000/svg" height="512px" viewBox="0 -3 410.54145 410" width="512px" class=""><g><path d="m94.609375 368.757812c8.953125-7.375 20.425781-10.984374 31.992187-10.058593l106.277344 7.835937h.332032c20.152343-.066406 39.777343-6.460937 56.101562-18.277344l121.230469-118.730468c-9.726563-6.828125-22.78125-6.460938-32.109375.898437l-.144532.113281-60.335937 45.117188c1.503906 3.585938 2.605469 7.324219 3.28125 11.152344.664063 3.808594-1.882813 7.433594-5.691406 8.101562l-97.910157 17.125c-3.808593.667969-7.4375-1.878906-8.101562-5.6875-.667969-3.808594 1.878906-7.4375 5.6875-8.101562l90.378906-15.808594c-6.429687-17.085938-24.101562-27.1875-42.085937-24.0625l-59.566407 10.417969c-11.71875 2.03125-23.742187 1.40625-35.1875-1.835938l-6.660156-1.902343c-32.902344-9.449219-68.335937-.109376-92.300781 24.335937l15.25 87.175781zm0 0" data-original="#000000" class="active-path" data-old_color="#ffffff" fill="#ffffff"/><path d="m0 275.253906 51.527344-9.011718 22.660156 129.542968-51.527344 9.011719zm0 0" data-original="#000000" class="active-path" data-old_color="#ffffff" fill="#ffffff"/><path d="m138.199219 208.535156h176.222656c8.128906-.074218 14.71875-6.617187 14.847656-14.75v-114.25h-206v114.25c.167969 8.148438 6.785157 14.683594 14.929688 14.75zm0 0" data-original="#000000" class="active-path" data-old_color="#ffffff" fill="#ffffff"/><path d="m329.269531 48.082031c-.144531-8.089843-6.757812-14.566406-14.847656-14.546875h-17.152344v12.234375c0 3.863281-3.132812 7-7 7-3.863281 0-7-3.136719-7-7v-12.234375h-112v12.234375c0 3.863281-3.132812 7-7 7-3.863281 0-7-3.136719-7-7v-12.234375h-19.070312c-8.027344 0-14.929688 6.515625-14.929688 14.546875v17.453125h206zm0 0" data-original="#000000" class="active-path" data-old_color="#ffffff" fill="#ffffff"/><path d="m171.269531 7.269531c0-3.863281-3.132812-7-7-7-3.863281 0-7 3.136719-7 7v26.265625h14zm0 0" data-original="#000000" class="active-path" data-old_color="#ffffff" fill="#ffffff"/><path d="m297.269531 7.269531c0-3.863281-3.132812-7-7-7-3.863281 0-7 3.136719-7 7v26.265625h14zm0 0" data-original="#000000" class="active-path" data-old_color="#ffffff" fill="#ffffff"/></g> </svg>
