<?xml version="1.0"?>
<svg xmlns="http://www.w3.org/2000/svg" height="512px" viewBox="0 0 511 512" width="512px" class=""><g><path d="m159.832031 15.09375-15.09375-15.09375h-61.679687l-15.09375 15.09375v192.707031h91.867187zm-14.992187 177.714844h-61.882813v-171.507813l6.308594-6.308593h49.261719l6.3125 6.308593zm0 0" data-original="#000000" class="active-path" data-old_color="#000000" fill="#FE6637"/><path d="m35.671875 159.132812h19.949219v-15.296874h-34.941406v82.351562h14.992187zm0 0" data-original="#000000" class="active-path" data-old_color="#000000" fill="#FE6637"/><path d="m60.960938 427.429688v-178.484376l-10.265626-10.265624h-39.929687l-10.265625 10.265624v178.488282l10.265625 10.265625h39.929687zm-14.992188-6.207032-1.484375 1.484375h-27.507813l-1.484374-1.484375v-166.070312l1.484374-1.484375h27.507813l1.484375 1.484375zm0 0" data-original="#000000" class="active-path" data-old_color="#000000" fill="#FE6637"/><path d="m71.472656 248.941406v178.488282l10.265625 10.265624h39.929688l10.265625-10.265624v-178.488282l-10.265625-10.265625h-39.929688zm14.992188 6.207032 1.484375-1.484376h27.507812l1.484375 1.484376v166.074218l-1.484375 1.484375h-27.507812l-1.484375-1.484375zm0 0" data-original="#000000" class="active-path" data-old_color="#000000" fill="#FE6637"/><path d="m142.441406 248.941406v178.488282l10.269532 10.265624h39.925781l10.265625-10.265624v-178.488282l-10.265625-10.265625h-39.925781zm14.992188 6.207032 1.484375-1.484376h27.507812l1.484375 1.484376v166.074218l-1.484375 1.484375h-27.507812l-1.484375-1.484375zm0 0" data-original="#000000" class="active-path" data-old_color="#000000" fill="#FE6637"/><path d="m444.699219 15.09375-15.089844-15.09375h-61.679687l-15.09375 15.09375v192.707031h91.863281zm-14.988281 177.714844h-61.886719v-171.507813l6.3125-6.308593h49.261719l6.3125 6.308593zm0 0" data-original="#000000" class="active-path" data-old_color="#000000" fill="#FE6637"/><path d="m476.996094 497.007812h-179.710938l-33.28125-33.085937v-265.808594l66.09375-37.335937 10.476563-.320313v-15l-14.632813.449219-69.609375 39.324219-69.609375-39.324219-14.628906-.449219v15l10.472656.320313 66.097656 37.335937v265.804688l-33.28125 33.089843h-179.710937v-46.816406h-14.992187v61.808594h200.882812l34.769531-34.566406 34.769531 34.566406h200.882813v-61.808594h-14.988281zm0 0" data-original="#000000" class="active-path" data-old_color="#000000" fill="#FE6637"/><path d="m476.996094 159.132812v67.054688h14.988281v-82.351562h-34.632813v15.296874zm0 0" data-original="#000000" class="active-path" data-old_color="#000000" fill="#FE6637"/><path d="m501.898438 238.679688h-39.925782l-10.265625 10.265624v178.488282l10.265625 10.265625h39.925782l10.269531-10.265625v-178.488282zm-4.722657 182.542968-1.484375 1.484375h-27.507812l-1.484375-1.484375v-166.070312l1.484375-1.484375h27.507812l1.488282 1.484375v166.070312zm0 0" data-original="#000000" class="active-path" data-old_color="#000000" fill="#FE6637"/><path d="m380.730469 248.941406v178.488282l10.265625 10.265624h39.929687l10.265625-10.265624v-178.488282l-10.265625-10.265625h-39.925781zm14.992187 6.207032 1.484375-1.484376h27.507813l1.484375 1.484376v166.074218l-1.484375 1.484375h-27.507813l-1.484375-1.484375zm0 0" data-original="#000000" class="active-path" data-old_color="#000000" fill="#FE6637"/><path d="m309.761719 248.941406v178.488282l10.265625 10.265624h39.929687l10.265625-10.265624v-178.488282l-10.265625-10.265625h-39.929687zm14.992187 6.207032 1.484375-1.484376h27.507813l1.484375 1.484376v166.074218l-1.484375 1.484375h-27.507813l-1.484375-1.484375zm0 0" data-original="#000000" class="active-path" data-old_color="#000000" fill="#FE6637"/><path d="m406.261719 151.234375h-14.988281v-45.96875h14.988281zm0-55.964844h-14.988281v-14.988281h14.988281zm0-24.980469h-14.988281v-14.992187h14.988281zm0 0" data-original="#000000" class="active-path" data-old_color="#000000" fill="#FE6637"/></g> </svg>
